<?xml version="1.0" encoding="UTF-8"?>
<svg width="500px" height="500px" viewBox="0 0 500 500" version="1.1" xmlns="http://www.w3.org/2000/svg" xmlns:xlink="http://www.w3.org/1999/xlink">
    <!-- Generator: Sketch 53.2 (72643) - https://sketchapp.com -->
    <title>Artboard</title>
    <desc>Created with Sketch.</desc>
    <g id="Artboard" stroke="none" stroke-width="1" fill="none" fill-rule="evenodd">
        <circle id="Oval" fill="#F0BD1D" cx="250.5" cy="250.5" r="30.5"></circle>
        <path d="M381.877518,247.119909 C382.341179,247.030241 382.820065,246.983279 383.309921,246.983279 C385.408001,246.983279 387.304865,247.844786 388.666062,249.233348 C388.68405,249.250983 388.70197,249.268727 388.719823,249.28658 L431.853337,292.420094 C434.782269,295.349026 434.782269,300.097763 431.853337,303.026695 C428.924405,305.955627 424.175667,305.955627 421.246735,303.026695 L390.809921,272.589881 L390.809921,513.483279 C390.809921,517.625415 387.452056,520.983279 383.309921,520.983279 C379.167785,520.983279 375.809921,517.625415 375.809921,513.483279 L375.809921,271.936598 L344.719823,303.026695 C341.790891,305.955627 337.042154,305.955627 334.113221,303.026695 C331.184289,300.097763 331.184289,295.349026 334.113221,292.420094 L377.246735,249.28658 C378.539978,247.993337 380.188008,247.271113 381.877518,247.119909 L381.877518,247.119909 Z" id="Path" fill="#FFFFFF" transform="translate(382.983279, 383.983279) rotate(315.000000) translate(-382.983279, -383.983279) "></path>
        <path d="M115.877518,247.119909 C116.341179,247.030241 116.820065,246.983279 117.309921,246.983279 C119.408001,246.983279 121.304865,247.844786 122.666062,249.233348 C122.68405,249.250983 122.70197,249.268727 122.719823,249.28658 L165.853337,292.420094 C168.782269,295.349026 168.782269,300.097763 165.853337,303.026695 C162.924405,305.955627 158.175667,305.955627 155.246735,303.026695 L124.809921,272.589881 L124.809921,513.483279 C124.809921,517.625415 121.452056,520.983279 117.309921,520.983279 C113.167785,520.983279 109.809921,517.625415 109.809921,513.483279 L109.809921,271.936598 L78.7198231,303.026695 C75.7908909,305.955627 71.0421536,305.955627 68.1132214,303.026695 C65.1842892,300.097763 65.1842892,295.349026 68.1132214,292.420094 L111.246735,249.28658 C112.539978,247.993337 114.188008,247.271113 115.877518,247.119909 L115.877518,247.119909 Z" id="Path" fill="#FFFFFF" transform="translate(116.983279, 383.983279) rotate(45.000000) translate(-116.983279, -383.983279) "></path>
        <path d="M382.877518,-18.8800906 C383.341179,-18.9697586 383.820065,-19.0167209 384.309921,-19.0167209 C386.408001,-19.0167209 388.304865,-18.1552142 389.666062,-16.7666523 C389.68405,-16.749017 389.70197,-16.731273 389.719823,-16.7134201 L432.853337,26.4200936 C435.782269,29.3490258 435.782269,34.0977631 432.853337,37.0266953 C429.924405,39.9556275 425.175667,39.9556275 422.246735,37.0266953 L391.809921,6.58988079 L391.809921,247.483279 C391.809921,251.625415 388.452056,254.983279 384.309921,254.983279 C380.167785,254.983279 376.809921,251.625415 376.809921,247.483279 L376.809921,5.93659787 L345.719823,37.0266953 C342.790891,39.9556275 338.042154,39.9556275 335.113221,37.0266953 C332.184289,34.0977631 332.184289,29.3490258 335.113221,26.4200936 L378.246735,-16.7134201 C379.539978,-18.0066633 381.188008,-18.7288868 382.877518,-18.8800906 L382.877518,-18.8800906 Z" id="Path" fill="#FFFFFF" transform="translate(383.983279, 117.983279) rotate(225.000000) translate(-383.983279, -117.983279) "></path>
        <path d="M115.877518,-18.8800906 C116.341179,-18.9697586 116.820065,-19.0167209 117.309921,-19.0167209 C119.408001,-19.0167209 121.304865,-18.1552142 122.666062,-16.7666523 C122.68405,-16.749017 122.70197,-16.731273 122.719823,-16.7134201 L165.853337,26.4200936 C168.782269,29.3490258 168.782269,34.0977631 165.853337,37.0266953 C162.924405,39.9556275 158.175667,39.9556275 155.246735,37.0266953 L124.809921,6.58988079 L124.809921,247.483279 C124.809921,251.625415 121.452056,254.983279 117.309921,254.983279 C113.167785,254.983279 109.809921,251.625415 109.809921,247.483279 L109.809921,5.93659787 L78.7198231,37.0266953 C75.7908909,39.9556275 71.0421536,39.9556275 68.1132214,37.0266953 C65.1842892,34.0977631 65.1842892,29.3490258 68.1132214,26.4200936 L111.246735,-16.7134201 C112.539978,-18.0066633 114.188008,-18.7288868 115.877518,-18.8800906 L115.877518,-18.8800906 Z" id="Path" fill="#FFFFFF" transform="translate(116.983279, 117.983279) rotate(135.000000) translate(-116.983279, -117.983279) "></path>
    </g>
</svg>