<?xml version="1.0" encoding="UTF-8"?>
<svg width="500px" height="500px" viewBox="0 0 500 500" version="1.1" xmlns="http://www.w3.org/2000/svg" xmlns:xlink="http://www.w3.org/1999/xlink">
    <!-- Generator: Sketch 53.2 (72643) - https://sketchapp.com -->
    <title>Artboard</title>
    <desc>Created with Sketch.</desc>
    <g id="Artboard" stroke="none" stroke-width="1" fill="none" fill-rule="evenodd">
        <circle id="Oval" fill="#F0BD1D" cx="447.5" cy="250.5" r="30.5"></circle>
        <path d="M158.894239,113.203387 C159.3579,113.113719 159.836786,113.066757 160.326641,113.066757 C162.424722,113.066757 164.321586,113.928264 165.682783,115.316825 C165.700771,115.334461 165.718691,115.352205 165.736544,115.370058 L208.870058,158.503571 C211.79899,161.432504 211.79899,166.181241 208.870058,169.110173 C205.941125,172.039105 201.192388,172.039105 198.263456,169.110173 L167.826641,138.673359 L167.826641,379.566757 C167.826641,383.708892 164.468777,387.066757 160.326641,387.066757 C156.184506,387.066757 152.826641,383.708892 152.826641,379.566757 L152.826641,138.020076 L121.736544,169.110173 C118.807612,172.039105 114.058875,172.039105 111.129942,169.110173 C108.20101,166.181241 108.20101,161.432504 111.129942,158.503571 L154.263456,115.370058 C155.556699,114.076814 157.204728,113.354591 158.894239,113.203387 L158.894239,113.203387 Z" id="Path" fill="#FFFFFF" transform="translate(160.000000, 250.066757) rotate(90.000000) translate(-160.000000, -250.066757) "></path>
    </g>
</svg>