<?xml version="1.0" encoding="UTF-8"?>
<svg width="500px" height="500px" viewBox="0 0 500 500" version="1.1" xmlns="http://www.w3.org/2000/svg" xmlns:xlink="http://www.w3.org/1999/xlink">
    <!-- Generator: Sketch 53.2 (72643) - https://sketchapp.com -->
    <title>Artboard</title>
    <desc>Created with Sketch.</desc>
    <g id="Artboard" stroke="none" stroke-width="1" fill="none" fill-rule="evenodd">
        <circle id="Oval" fill="#F0BD1D" cx="250.5" cy="52.5" r="30.5"></circle>
        <path d="M248.960996,226.13663 C249.424657,226.046962 249.903543,226 250.393398,226 C252.491478,226 254.388343,226.861507 255.74954,228.250069 C255.767527,228.267704 255.785448,228.285448 255.803301,228.303301 L298.936815,271.436815 C301.865747,274.365747 301.865747,279.114484 298.936815,282.043416 C296.007882,284.972348 291.259145,284.972348 288.330213,282.043416 L257.893398,251.606602 L257.893398,492.5 C257.893398,496.642136 254.535534,500 250.393398,500 C246.251263,500 242.893398,496.642136 242.893398,492.5 L242.893398,250.953319 L211.803301,282.043416 C208.874369,284.972348 204.125631,284.972348 201.196699,282.043416 C198.267767,279.114484 198.267767,274.365747 201.196699,271.436815 L244.330213,228.303301 C245.623456,227.010058 247.271485,226.287834 248.960996,226.13663 L248.960996,226.13663 Z" id="Path" fill="#FFFFFF"></path>
    </g>
</svg>