<?xml version="1.0" encoding="UTF-8"?>
<svg width="500px" height="500px" viewBox="0 0 500 500" version="1.1" xmlns="http://www.w3.org/2000/svg" xmlns:xlink="http://www.w3.org/1999/xlink">
    <!-- Generator: Sketch 53.2 (72643) - https://sketchapp.com -->
    <title>Artboard</title>
    <desc>Created with Sketch.</desc>
    <g id="Artboard" stroke="none" stroke-width="1" fill="none" fill-rule="evenodd">
        <circle id="Oval" fill="#F0BD1D" cx="447.5" cy="52.5" r="30.5"></circle>
        <path d="M157.877518,188.119909 C158.341179,188.030241 158.820065,187.983279 159.309921,187.983279 C161.408001,187.983279 163.304865,188.844786 164.666062,190.233348 C164.68405,190.250983 164.70197,190.268727 164.719823,190.28658 L207.853337,233.420094 C210.782269,236.349026 210.782269,241.097763 207.853337,244.026695 C204.924405,246.955627 200.175667,246.955627 197.246735,244.026695 L166.809921,213.589881 L166.809921,454.483279 C166.809921,458.625415 163.452056,461.983279 159.309921,461.983279 C155.167785,461.983279 151.809921,458.625415 151.809921,454.483279 L151.809921,212.936598 L120.719823,244.026695 C117.790891,246.955627 113.042154,246.955627 110.113221,244.026695 C107.184289,241.097763 107.184289,236.349026 110.113221,233.420094 L153.246735,190.28658 C154.539978,188.993337 156.188008,188.271113 157.877518,188.119909 L157.877518,188.119909 Z" id="Path" fill="#FFFFFF" transform="translate(158.983279, 324.983279) rotate(45.000000) translate(-158.983279, -324.983279) "></path>
    </g>
</svg>