<?xml version="1.0" encoding="UTF-8"?>
<svg width="500px" height="500px" viewBox="0 0 500 500" version="1.1" xmlns="http://www.w3.org/2000/svg" xmlns:xlink="http://www.w3.org/1999/xlink">
    <!-- Generator: Sketch 53.2 (72643) - https://sketchapp.com -->
    <title>Artboard</title>
    <desc>Created with Sketch.</desc>
    <g id="Artboard" stroke="none" stroke-width="1" fill="none" fill-rule="evenodd">
        <circle id="Oval" fill="#F0BD1D" cx="52.5" cy="52.5" r="30.5"></circle>
        <path d="M302.877518,204.119909 C303.341179,204.030241 303.820065,203.983279 304.309921,203.983279 C306.408001,203.983279 308.304865,204.844786 309.666062,206.233348 C309.68405,206.250983 309.70197,206.268727 309.719823,206.28658 L352.853337,249.420094 C355.782269,252.349026 355.782269,257.097763 352.853337,260.026695 C349.924405,262.955627 345.175667,262.955627 342.246735,260.026695 L311.809921,229.589881 L311.809921,470.483279 C311.809921,474.625415 308.452056,477.983279 304.309921,477.983279 C300.167785,477.983279 296.809921,474.625415 296.809921,470.483279 L296.809921,228.936598 L265.719823,260.026695 C262.790891,262.955627 258.042154,262.955627 255.113221,260.026695 C252.184289,257.097763 252.184289,252.349026 255.113221,249.420094 L298.246735,206.28658 C299.539978,204.993337 301.188008,204.271113 302.877518,204.119909 L302.877518,204.119909 Z" id="Path" fill="#FFFFFF" transform="translate(303.983279, 340.983279) rotate(315.000000) translate(-303.983279, -340.983279) "></path>
    </g>
</svg>