<?xml version="1.0" encoding="UTF-8"?>
<svg width="500px" height="500px" viewBox="0 0 500 500" version="1.1" xmlns="http://www.w3.org/2000/svg" xmlns:xlink="http://www.w3.org/1999/xlink">
    <!-- Generator: Sketch 53.2 (72643) - https://sketchapp.com -->
    <title>Artboard</title>
    <desc>Created with Sketch.</desc>
    <g id="Artboard" stroke="none" stroke-width="1" fill="none" fill-rule="evenodd">
        <circle id="Oval" fill="#F0BD1D" cx="250.5" cy="447.5" r="30.5"></circle>
        <path d="M248.960996,21.1199094 C249.424657,21.0302414 249.903543,20.9832791 250.393398,20.9832791 C252.491478,20.9832791 254.388343,21.8447858 255.74954,23.2333477 C255.767527,23.250983 255.785448,23.268727 255.803301,23.2865799 L298.936815,66.4200936 C301.865747,69.3490258 301.865747,74.0977631 298.936815,77.0266953 C296.007882,79.9556275 291.259145,79.9556275 288.330213,77.0266953 L257.893398,46.5898808 L257.893398,287.483279 C257.893398,291.625415 254.535534,294.983279 250.393398,294.983279 C246.251263,294.983279 242.893398,291.625415 242.893398,287.483279 L242.893398,45.9365979 L211.803301,77.0266953 C208.874369,79.9556275 204.125631,79.9556275 201.196699,77.0266953 C198.267767,74.0977631 198.267767,69.3490258 201.196699,66.4200936 L244.330213,23.2865799 C245.623456,21.9933367 247.271485,21.2711132 248.960996,21.1199094 L248.960996,21.1199094 Z" id="Path" fill="#FFFFFF" transform="translate(250.066757, 157.983279) rotate(180.000000) translate(-250.066757, -157.983279) "></path>
    </g>
</svg>