<?xml version="1.0" encoding="UTF-8"?>
<svg width="500px" height="500px" viewBox="0 0 500 500" version="1.1" xmlns="http://www.w3.org/2000/svg" xmlns:xlink="http://www.w3.org/1999/xlink">
    <!-- Generator: Sketch 53.2 (72643) - https://sketchapp.com -->
    <title>Artboard</title>
    <desc>Created with Sketch.</desc>
    <g id="Artboard" stroke="none" stroke-width="1" fill="none" fill-rule="evenodd">
        <circle id="Oval" fill="#F0BD1D" cx="447.5" cy="447.5" r="30.5"></circle>
        <path d="M196.877518,21.1199094 C197.341179,21.0302414 197.820065,20.9832791 198.309921,20.9832791 C200.408001,20.9832791 202.304865,21.8447858 203.666062,23.2333477 C203.68405,23.250983 203.70197,23.268727 203.719823,23.2865799 L246.853337,66.4200936 C249.782269,69.3490258 249.782269,74.0977631 246.853337,77.0266953 C243.924405,79.9556275 239.175667,79.9556275 236.246735,77.0266953 L205.809921,46.5898808 L205.809921,287.483279 C205.809921,291.625415 202.452056,294.983279 198.309921,294.983279 C194.167785,294.983279 190.809921,291.625415 190.809921,287.483279 L190.809921,45.9365979 L159.719823,77.0266953 C156.790891,79.9556275 152.042154,79.9556275 149.113221,77.0266953 C146.184289,74.0977631 146.184289,69.3490258 149.113221,66.4200936 L192.246735,23.2865799 C193.539978,21.9933367 195.188008,21.2711132 196.877518,21.1199094 L196.877518,21.1199094 Z" id="Path" fill="#FFFFFF" transform="translate(197.983279, 157.983279) rotate(135.000000) translate(-197.983279, -157.983279) "></path>
    </g>
</svg>