<?xml version="1.0" encoding="UTF-8"?>
<svg width="500px" height="500px" viewBox="0 0 500 500" version="1.1" xmlns="http://www.w3.org/2000/svg" xmlns:xlink="http://www.w3.org/1999/xlink">
    <!-- Generator: Sketch 53.2 (72643) - https://sketchapp.com -->
    <title>Artboard</title>
    <desc>Created with Sketch.</desc>
    <g id="Artboard" stroke="none" stroke-width="1" fill="none" fill-rule="evenodd">
        <circle id="Oval" fill="#F0BD1D" cx="52.5" cy="447.5" r="30.5"></circle>
        <path d="M340.877518,59.1199094 C341.341179,59.0302414 341.820065,58.9832791 342.309921,58.9832791 C344.408001,58.9832791 346.304865,59.8447858 347.666062,61.2333477 C347.68405,61.250983 347.70197,61.268727 347.719823,61.2865799 L390.853337,104.420094 C393.782269,107.349026 393.782269,112.097763 390.853337,115.026695 C387.924405,117.955627 383.175667,117.955627 380.246735,115.026695 L349.809921,84.5898808 L349.809921,325.483279 C349.809921,329.625415 346.452056,332.983279 342.309921,332.983279 C338.167785,332.983279 334.809921,329.625415 334.809921,325.483279 L334.809921,83.9365979 L303.719823,115.026695 C300.790891,117.955627 296.042154,117.955627 293.113221,115.026695 C290.184289,112.097763 290.184289,107.349026 293.113221,104.420094 L336.246735,61.2865799 C337.539978,59.9933367 339.188008,59.2711132 340.877518,59.1199094 L340.877518,59.1199094 Z" id="Path" fill="#FFFFFF" transform="translate(341.983279, 195.983279) rotate(225.000000) translate(-341.983279, -195.983279) "></path>
    </g>
</svg>