<?xml version="1.0" encoding="UTF-8"?>
<svg width="500px" height="500px" viewBox="0 0 500 500" version="1.1" xmlns="http://www.w3.org/2000/svg" xmlns:xlink="http://www.w3.org/1999/xlink">
    <!-- Generator: Sketch 53.2 (72643) - https://sketchapp.com -->
    <title>Artboard</title>
    <desc>Created with Sketch.</desc>
    <g id="Artboard" stroke="none" stroke-width="1" fill="none" fill-rule="evenodd">
        <circle id="Oval" fill="#F0BD1D" cx="52.5" cy="250.5" r="30.5"></circle>
        <path d="M340.877518,113.203387 C341.341179,113.113719 341.820065,113.066757 342.309921,113.066757 C344.408001,113.066757 346.304865,113.928264 347.666062,115.316825 C347.68405,115.334461 347.70197,115.352205 347.719823,115.370058 L390.853337,158.503571 C393.782269,161.432504 393.782269,166.181241 390.853337,169.110173 C387.924405,172.039105 383.175667,172.039105 380.246735,169.110173 L349.809921,138.673359 L349.809921,379.566757 C349.809921,383.708892 346.452056,387.066757 342.309921,387.066757 C338.167785,387.066757 334.809921,383.708892 334.809921,379.566757 L334.809921,138.020076 L303.719823,169.110173 C300.790891,172.039105 296.042154,172.039105 293.113221,169.110173 C290.184289,166.181241 290.184289,161.432504 293.113221,158.503571 L336.246735,115.370058 C337.539978,114.076814 339.188008,113.354591 340.877518,113.203387 L340.877518,113.203387 Z" id="Path" fill="#FFFFFF" transform="translate(341.983279, 250.066757) rotate(270.000000) translate(-341.983279, -250.066757) "></path>
    </g>
</svg>